# xmcd
#
# Track frame offsets: 
#        150
#        12755
#        28317
#        39947
#        54647
#        66765
#        82000
#        96810
#        111850
#        128950
#        144110
#        158607
#        175370
#        190087
#        203825
#        221757
#
# Disc length: 3186 seconds
#
# Revision: 1
# Processed by: cddbd v1.5.2PL0 Copyright (c) Steve Scherf et al.
# Submitted via: ExactAudioCopy v0.95b4
#
DISCID=db0c7010
DTITLE=Dolly Parton - Legends [CD2]
DYEAR=2005
DGENRE=Country
TTITLE0=9 To 5
TTITLE1=Old Flames (Can't Hold A Candle To You)
TTITLE2=Baby I'm Burning
TTITLE3=Sweet Summer Lovin'
TTITLE4=The Bargain Store
TTITLE5=Think About Love
TTITLE6=The Seeker
TTITLE7=Don't Call It Love
TTITLE8=Save The Last Dance For Me
TTITLE9=You're The Only One
TTITLE10=Heartbreak Express
TTITLE11=Single Women
TTITLE12=Potential New Boyfriend
TTITLE13=Two Doors Down
TTITLE14=Starting Over Again
TTITLE15=We Had It All
EXTD=
EXTT0=
EXTT1=
EXTT2=
EXTT3=
EXTT4=
EXTT5=
EXTT6=
EXTT7=
EXTT8=
EXTT9=
EXTT10=
EXTT11=
EXTT12=
EXTT13=
EXTT14=
EXTT15=
PLAYORDER=
